<?xml version="1.0" encoding="UTF-8"?>
<svg id="TEXT" xmlns="http://www.w3.org/2000/svg" viewBox="0 0 1920 540">
  <defs>
    <style>
      .cls-1 {
        fill: #fff;
      }

      .cls-2 {
        fill: #52576b;
      }
    </style>
  </defs>
  <rect class="cls-1" width="1920" height="540"/>
  <g>
    <path class="cls-2" d="M163.44,264.42c29.48-5.73,45.07-19.56,45.07-39.99,0-26.24-20.93-40.68-58.93-40.68h-72.23c7.04,3.81,16.42,11.7,16.42,26.69v122.82c0,13.94-9.61,21.69-16.66,25.49h66.47c67.49,0,74.78-33.15,74.78-47.4,0-25.04-17.92-39.38-54.8-43.81l-.11-3.11ZM124,263.09c0-24.83,0-48.28.72-71.61l.05-1.52h15.69c25.74,0,38.79,12,38.79,35.68,0,25.53-14.65,39.03-42.39,39.03h-12.85v-1.58ZM187.17,311.58c0,26.4-16.33,40.96-45.99,40.96h-16.41l-.05-1.54c-.72-24.99-.72-49.92-.72-78.79v-1.58h14.77c32.56,0,48.39,13.4,48.39,40.95Z"/>
    <path class="cls-2" d="M385.99,352.05l-.05-1.54c-.72-24.51-.72-49.71-.72-76.39v-1.58h22.73c15.03,0,23.92,11.74,28.16,19.54v-43.65c-3.86,7.97-12.18,18.13-29.49,18.13h-20.77v-1.58h-.63c0-25.32,0-49.24.72-72.79l.05-1.52h47.3c17.35,0,25.74,9.63,29.66,17.18l-.16-24.12h-125.34c7.09,4.26,17.07,13.74,17.07,33.48v113.1c0,15.94-9.91,24.42-16.98,28.43h144.03v-39.43c-5.77,11.28-19.78,32.74-42.92,32.74h-52.65Z"/>
    <path class="cls-2" d="M735.25,325.54c-9.39-25.93-46.65-130.2-50.79-141.8h-18.52c-4.55,15.25-46.71,156.2-54.44,166.28-3.24,4.24-7.2,6.97-10.84,8.72h36.54c-4.21-2.08-9.01-5.29-11.64-9.87-2.07-3.59-2.52-7.53-1.36-11.69,4.54-16.19,10.56-34.57,10.62-34.75l.36-1.08h59.43l10.94,33.7c3.61,11.12-4.7,19.22-12.77,23.69h64.58c-5.59-4.36-15.18-14.1-22.1-33.2ZM636.81,295.66l27.45-88.83,28.48,88.83h-55.93Z"/>
    <path class="cls-2" d="M1545.84,307.91c-4.39-20.39-11.62-32.17-37.12-35.71l-.03-3.11c29.9-4.71,47.05-20.05,47.05-42.09,0-27.5-22.39-43.26-61.43-43.26h-70.23c6.66,3.27,14.46,9.73,14.46,21.98,0,9.68.11,18.07.22,26.78.12,9.45.25,19.27.25,31.54v11.56c0,12.13-.09,20.09-.18,27.98-.09,7.77-.18,15.48-.18,27.06,0,14.32-8.14,24.59-14.91,28.09h62.89c-7.1-4.31-17.72-16.72-17.72-34,0-12.51-.18-18.86-.36-25.01-.17-6.12-.35-12.45-.35-24.84v-1.58h14.55c21.71,0,27.9,10.14,31.74,28.86l8.49,36.31c2.36,14.6,10.86,20.25,30.32,20.25,7.18,0,12.61-.43,18.06-1.54-5.16-1.6-12.17-4.45-15.54-8.91-5.44-7.21-9.8-39.03-9.98-40.38ZM1486.99,267.74h-18.79v-1.58c0-27.36,0-50.98.71-74.85l.05-1.52h18.75c25.51,0,39.55,13.3,39.55,37.45,0,25.36-15.05,40.51-40.27,40.51Z"/>
    <path class="cls-2" d="M937.16,190.68l.02,1.56c.18,18.33.09,81.49.04,119.24-.02,12.31-.04,22.03-.04,26.81,0,11.38-8.08,17.37-15.42,20.46h61.78c-7.34-3.09-15.42-9.08-15.42-20.46,0-4.78-.02-14.5-.04-26.81-.05-37.74-.15-100.91.04-119.24l.02-1.56h23.89c20.72,0,31.92,19.7,36.84,31.74v-38.67h-152.44v38.67c4.92-12.05,16.12-31.74,36.84-31.74h23.89Z"/>
    <path class="cls-2" d="M1282.56,325.54c-9.4-25.93-46.65-130.2-50.79-141.8h-18.53c-4.55,15.25-46.71,156.2-54.44,166.28-3.24,4.24-7.2,6.97-10.84,8.72h36.54c-4.21-2.08-9.01-5.29-11.65-9.87-2.06-3.59-2.52-7.53-1.36-11.69,4.54-16.19,10.56-34.57,10.62-34.75l.36-1.08h59.43l10.94,33.7c3.62,11.12-4.69,19.22-12.77,23.69h64.58c-5.59-4.36-15.18-14.1-22.1-33.2ZM1184.12,295.66l27.45-88.83,28.48,88.83h-55.93Z"/>
    <path class="cls-2" d="M1727.29,190.68h23.9l.02,1.56c.18,18.33.09,81.49.04,119.24-.02,12.31-.04,22.03-.04,26.81,0,11.38-8.08,17.37-15.42,20.46h61.78c-7.34-3.09-15.42-9.08-15.42-20.46,0-4.78-.02-14.5-.04-26.81-.05-37.74-.15-100.91.04-119.24l.02-1.56h23.89c20.72,0,31.92,19.7,36.84,31.74v-38.67h-152.44v38.67c4.92-12.05,16.12-31.74,36.84-31.74Z"/>
  </g>
</svg>