<svg width="253" height="30" viewBox="0 0 253 30" fill="none" xmlns="http://www.w3.org/2000/svg">
<path d="M31.0395 3.21119C31.0722 3.17854 31.1048 3.14588 31.1375 3.11323C25.2594 -1.42595 16.8015 -1.00144 11.4133 4.3868C7.72314 8.07693 6.35159 13.2039 7.33127 17.9717L2.00834 12.6488C1.68178 12.3222 1.15929 12.3222 0.832729 12.6488L0.24492 13.2366C-0.08164 13.5631 -0.08164 14.0856 0.24492 14.4122L10.8581 25.0254C10.8908 25.058 10.9561 25.0907 10.9887 25.1234C11.152 25.2866 11.2826 25.4499 11.4459 25.6132C16.8342 31.0014 25.2921 31.426 31.1701 26.8868C31.1375 26.8541 31.1048 26.8215 31.0722 26.7888C24.5736 20.2903 24.5736 9.74238 31.0722 3.24384L31.0395 3.21119Z" fill="#007EDE"/>
<path d="M64.5767 15.5878L53.9635 4.9746C53.9308 4.94195 53.8655 4.90929 53.8328 4.87664C53.6696 4.71336 53.5389 4.55008 53.3757 4.3868C47.5302 -1.45862 38.0273 -1.45862 32.1819 4.3868C26.3365 10.2322 26.3365 19.7351 32.1819 25.5805C38.0273 31.426 47.5302 31.426 53.3757 25.5805C59.2211 19.7351 58.4373 16.7634 57.4577 11.9956L62.7806 17.3186C63.1071 17.6451 63.6296 17.6451 63.9562 17.3186L64.544 16.7308C64.8706 16.4042 64.8706 15.8817 64.544 15.5551L64.5767 15.5878Z" fill="#01B4FF"/>
<path d="M92.6609 15.2612C95.4694 14.7061 96.9389 13.3999 96.9389 11.4405C96.9389 9.48114 94.9469 7.55443 91.3221 7.55443H84.4643C85.1174 7.91364 86.0318 8.66473 86.0318 10.1016V21.7924C86.0318 23.1313 85.1174 23.8498 84.4316 24.209H90.7669C97.2001 24.209 97.8859 21.0414 97.8859 19.7025C97.8859 17.3186 96.1878 15.947 92.6609 15.5225V15.2286V15.2612ZM88.9055 15.1306C88.9055 12.7794 88.9055 10.5261 88.9708 8.30551V8.1749H90.473C92.9222 8.1749 94.1631 9.31785 94.1631 11.5711C94.1631 13.8244 92.7589 15.2939 90.1464 15.2939H88.9382V15.1306H88.9055ZM94.9142 19.7678C94.9142 22.2823 93.3467 23.6538 90.5383 23.6538H88.9708V23.5232C88.9055 21.1393 88.9055 18.7881 88.9055 16.0123V15.8491H90.3097C93.412 15.8491 94.9142 17.1226 94.9142 19.7351V19.7678Z" fill="white"/>
<path d="M113.822 23.6212V23.4905C113.757 21.172 113.757 18.7554 113.757 16.2083V16.045H115.912C117.349 16.045 118.198 17.1553 118.59 17.9064V13.7591C118.231 14.5101 117.447 15.4898 115.782 15.4898H113.789V15.3265H113.724C113.724 12.91 113.724 10.6567 113.789 8.40347V8.27286H118.296C119.961 8.27286 120.745 9.18722 121.104 9.90565V7.61974H109.152C109.838 8.01161 110.785 8.92597 110.785 10.82V21.5638C110.785 23.066 109.838 23.8824 109.185 24.2743H122.901V20.5189C122.345 21.5965 121.006 23.6212 118.819 23.6212H113.822Z" fill="white"/>
<path d="M147.034 21.074C146.152 18.5922 142.593 8.69738 142.201 7.58707H140.437C140.013 9.02394 135.996 22.4456 135.245 23.3926C134.951 23.7845 134.559 24.0457 134.2 24.209H137.662C137.27 24.013 136.813 23.7191 136.551 23.2619C136.355 22.9354 136.323 22.5435 136.421 22.1517C136.845 20.6168 137.433 18.8534 137.433 18.8534V18.7554H143.115L144.16 21.9557C144.519 23.0007 143.703 23.7845 142.952 24.209H149.091C148.569 23.7845 147.654 22.8701 147.001 21.0413L147.034 21.074ZM137.694 18.2329L140.307 9.77503L143.017 18.2329H137.694Z" fill="white"/>
<path d="M224.167 19.4085C223.742 17.4818 223.056 16.3389 220.64 16.0123V15.7184C223.481 15.2612 225.114 13.8244 225.114 11.7017C225.114 9.5791 222.991 7.58707 219.268 7.58707H212.574C213.194 7.91363 213.945 8.50145 213.945 9.67707C213.945 10.8527 213.945 11.4078 213.945 12.2242C213.945 13.1386 213.945 14.053 213.945 15.2286V16.3389C213.945 17.4819 213.945 18.2656 213.945 19.0167C213.945 19.7678 213.945 20.4862 213.945 21.5965C213.945 22.7068 213.161 23.9477 212.541 24.2743H218.517C217.831 23.8498 216.819 22.6741 216.819 21.0413C216.819 19.4085 216.819 19.2453 216.786 18.6575C216.786 18.0697 216.754 17.4818 216.754 16.3062V16.1429H218.125C220.183 16.1429 220.77 17.1226 221.13 18.8861L221.946 22.3476C222.175 23.7518 222.991 24.2743 224.82 24.2743C226.648 24.2743 226.028 24.2416 226.55 24.1437C226.061 23.9804 225.407 23.7191 225.081 23.2946C224.558 22.6088 224.134 19.5718 224.134 19.4412L224.167 19.4085ZM218.582 15.5878H216.786V15.4245C216.786 12.812 216.786 10.5588 216.852 8.30551V8.1749H218.648C221.064 8.1749 222.403 9.44847 222.403 11.7344C222.403 14.0203 220.966 15.5878 218.582 15.5878Z" fill="white"/>
<path d="M166.267 8.2402V8.40348C166.267 10.1342 166.267 16.1429 166.267 19.7351C166.267 20.9107 166.267 21.8251 166.267 22.2823C166.267 23.3599 165.484 23.9477 164.798 24.2416H170.676C169.99 23.9477 169.206 23.3926 169.206 22.2823C169.206 21.172 169.206 20.9107 169.206 19.7351C169.206 16.1429 169.206 10.1342 169.206 8.40348V8.2402H171.492C173.452 8.2402 174.529 10.1016 174.987 11.2446V7.55443H160.487V11.2446C160.944 10.1016 162.022 8.2402 163.981 8.2402H166.267Z" fill="white"/>
<path d="M199.12 21.074C198.238 18.5922 194.679 8.69738 194.287 7.58707H192.523C192.099 9.02394 188.082 22.4456 187.331 23.3926C187.037 23.7845 186.645 24.0457 186.286 24.209H189.748C189.356 24.013 188.899 23.7191 188.637 23.2619C188.441 22.9354 188.409 22.5435 188.507 22.1517C188.931 20.6168 189.519 18.8534 189.519 18.8534V18.7554H195.201L196.246 21.9557C196.605 23.0007 195.789 23.7845 195.038 24.209H201.177C200.655 23.7845 199.74 22.8701 199.087 21.0413L199.12 21.074ZM189.748 18.2329L192.36 9.77503L195.071 18.2329H189.748Z" fill="white"/>
<path d="M241.442 8.2402H243.728V8.40348C243.728 10.1342 243.728 16.1429 243.728 19.7351C243.728 20.9107 243.728 21.8251 243.728 22.2823C243.728 23.3599 242.945 23.9477 242.259 24.2416H248.137C247.451 23.9477 246.667 23.3926 246.667 22.2823C246.667 21.172 246.667 20.9107 246.667 19.7351C246.667 16.1429 246.667 10.1342 246.667 8.40348V8.2402H248.953C250.913 8.2402 251.99 10.1016 252.447 11.2446V7.55443H237.948V11.2446C238.405 10.1016 239.483 8.2402 241.442 8.2402Z" fill="white"/>
</svg>
