<?xml version="1.0" encoding="UTF-8"?>
<svg id="TEXT" xmlns="http://www.w3.org/2000/svg" viewBox="0 0 1920 540">
  <defs>
    <style>
      .cls-1 {
        fill: #007ede;
      }

      .cls-2 {
        fill: #01b4ff;
      }
    </style>
  </defs>
  <g>
    <path class="cls-1" d="M933.66,350.26c-30.26-39.82-34.7-93.5-11.6-140.11,7.43-14.99,17.17-28.15,28.61-39.12-21.72-16.6-46.74-24.15-71.5-24.15-70.29,0-138.48,60.49-123.2,145.4l-53.11-53.11-15.37,15.37,102.47,102.47c24.05,24.05,55.58,36.08,87.1,36.08.71.01,1.43.02,2.14.02,27.25,0,51.48-9.18,70.96-24.11-5.89-5.64-11.42-11.89-16.51-18.75Z"/>
    <path class="cls-2" d="M1130.04,182.98c-24.05-24.05-55.58-36.08-87.1-36.08-.71-.01-1.43-.02-2.14-.02-97.65,0-156.53,117.81-97.14,195.87,26.04,35.09,61.88,50.36,97.18,50.36,70.29,0,138.48-60.49,123.19-145.4l53.11,53.11,15.37-15.37-102.47-102.47Z"/>
  </g>
  <g>
    <path class="cls-1" d="M933.66,350.26c-30.26-39.82-34.7-93.5-11.6-140.11,7.43-14.99,17.17-28.15,28.61-39.12-21.72-16.6-46.74-24.15-71.5-24.15-70.29,0-138.48,60.49-123.2,145.4l-53.11-53.11-15.37,15.37,102.47,102.47c24.05,24.05,55.58,36.08,87.1,36.08.71.01,1.43.02,2.14.02,27.25,0,51.48-9.18,70.96-24.11-5.89-5.64-11.42-11.89-16.51-18.75Z"/>
    <path class="cls-2" d="M1130.04,182.98c-24.05-24.05-55.58-36.08-87.1-36.08-.71-.01-1.43-.02-2.14-.02-97.65,0-156.53,117.81-97.14,195.87,26.04,35.09,61.88,50.36,97.18,50.36,70.29,0,138.48-60.49,123.19-145.4l53.11,53.11,15.37-15.37-102.47-102.47Z"/>
  </g>
</svg>