<svg width="36" height="36" viewBox="0 0 36 36" fill="none" xmlns="http://www.w3.org/2000/svg">
<path d="M32.2503 5.99999H28.2503V8.99999C28.2503 9.2889 28.1934 9.57498 28.0828 9.8419C27.9722 10.1088 27.8102 10.3513 27.6059 10.5556C27.4016 10.7599 27.1591 10.922 26.8922 11.0325C26.6252 11.1431 26.3392 11.2 26.0503 11.2C25.7613 11.2 25.4753 11.1431 25.2084 11.0325C24.9414 10.922 24.6989 10.7599 24.4946 10.5556C24.2903 10.3513 24.1283 10.1088 24.0177 9.8419C23.9072 9.57498 23.8503 9.2889 23.8503 8.99999V5.99999H12.2003V8.99999C12.2003 9.58347 11.9685 10.143 11.5559 10.5556C11.1433 10.9682 10.5837 11.2 10.0003 11.2C9.41678 11.2 8.8572 10.9682 8.44462 10.5556C8.03204 10.143 7.80026 9.58347 7.80026 8.99999V5.99999H3.80026C3.56228 5.99729 3.32618 6.04233 3.10591 6.13246C2.88565 6.22258 2.68569 6.35597 2.51787 6.52472C2.35005 6.69347 2.21778 6.89416 2.12887 7.11492C2.03996 7.33569 1.99623 7.57204 2.00026 7.80999V30.19C1.99628 30.4238 2.0384 30.656 2.1242 30.8735C2.21 31.091 2.33781 31.2894 2.50032 31.4575C2.66283 31.6256 2.85686 31.76 3.07132 31.8531C3.28579 31.9462 3.51649 31.9961 3.75026 32H32.2503C32.484 31.9961 32.7147 31.9462 32.9292 31.8531C33.1437 31.76 33.3377 31.6256 33.5002 31.4575C33.6627 31.2894 33.7905 31.091 33.8763 30.8735C33.9621 30.656 34.0042 30.4238 34.0003 30.19V7.80999C34.0042 7.57623 33.9621 7.34398 33.8763 7.12649C33.7905 6.90901 33.6627 6.71056 33.5002 6.54248C33.3377 6.3744 33.1437 6.23998 32.9292 6.1469C32.7147 6.05382 32.484 6.0039 32.2503 5.99999ZM10.0003 26H8.00026V24H10.0003V26ZM10.0003 21H8.00026V19H10.0003V21ZM10.0003 16H8.00026V14H10.0003V16ZM16.0003 26H14.0003V24H16.0003V26ZM16.0003 21H14.0003V19H16.0003V21ZM16.0003 16H14.0003V14H16.0003V16ZM22.0003 26H20.0003V24H22.0003V26ZM22.0003 21H20.0003V19H22.0003V21ZM22.0003 16H20.0003V14H22.0003V16ZM28.0003 26H26.0003V24H28.0003V26ZM28.0003 21H26.0003V19H28.0003V21ZM28.0003 16H26.0003V14H28.0003V16Z" fill="#01B4FF"/>
<path d="M10 10C10.2652 10 10.5196 9.89464 10.7071 9.70711C10.8946 9.51957 11 9.26522 11 9V3C11 2.73478 10.8946 2.48043 10.7071 2.29289C10.5196 2.10536 10.2652 2 10 2C9.73478 2 9.48043 2.10536 9.29289 2.29289C9.10536 2.48043 9 2.73478 9 3V9C9 9.26522 9.10536 9.51957 9.29289 9.70711C9.48043 9.89464 9.73478 10 10 10Z" fill="#01B4FF"/>
<path d="M26 10C26.2652 10 26.5196 9.89464 26.7071 9.70711C26.8946 9.51957 27 9.26522 27 9V3C27 2.73478 26.8946 2.48043 26.7071 2.29289C26.5196 2.10536 26.2652 2 26 2C25.7348 2 25.4804 2.10536 25.2929 2.29289C25.1054 2.48043 25 2.73478 25 3V9C25 9.26522 25.1054 9.51957 25.2929 9.70711C25.4804 9.89464 25.7348 10 26 10Z" fill="#01B4FF"/>
</svg>
