<svg width="36" height="36" viewBox="0 0 36 36" fill="none" xmlns="http://www.w3.org/2000/svg">
<path fill-rule="evenodd" clip-rule="evenodd" d="M5.8498 5.40002C4.77568 5.40002 3.74554 5.82672 2.98602 6.58624C2.2265 7.34576 1.7998 8.3759 1.7998 9.45002V26.55C1.7998 27.6242 2.2265 28.6543 2.98602 29.4138C3.74554 30.1733 4.77568 30.6 5.8498 30.6H30.1498C30.6817 30.6 31.2083 30.4953 31.6997 30.2917C32.191 30.0882 32.6375 29.7899 33.0136 29.4138C33.3897 29.0377 33.688 28.5913 33.8915 28.0999C34.0951 27.6085 34.1998 27.0819 34.1998 26.55V9.45002C34.1998 8.91817 34.0951 8.39153 33.8915 7.90016C33.688 7.40879 33.3897 6.96232 33.0136 6.58624C32.6375 6.21016 32.191 5.91184 31.6997 5.70831C31.2083 5.50478 30.6817 5.40002 30.1498 5.40002H5.8498ZM7.5472 21.1536C7.4283 21.0219 7.33654 20.868 7.27716 20.7008C7.21778 20.5336 7.19195 20.3563 7.20114 20.1791C7.21034 20.0019 7.25438 19.8282 7.33075 19.6681C7.40711 19.5079 7.51431 19.3643 7.6462 19.2456L11.0302 16.2L7.6462 13.1526C7.51025 13.0352 7.39911 12.8918 7.3193 12.7308C7.23949 12.5698 7.19261 12.3945 7.18142 12.2152C7.17022 12.0359 7.19492 11.8562 7.25409 11.6865C7.31326 11.5169 7.40569 11.3607 7.52597 11.2273C7.64625 11.0938 7.79197 10.9857 7.95457 10.9093C8.11717 10.8329 8.29339 10.7897 8.4729 10.7822C8.65241 10.7748 8.8316 10.8033 8.99997 10.866C9.16834 10.9287 9.32249 11.0244 9.4534 11.1474L13.9534 15.1974C14.0938 15.324 14.206 15.4787 14.2828 15.6514C14.3597 15.8241 14.3994 16.011 14.3994 16.2C14.3994 16.389 14.3597 16.576 14.2828 16.7487C14.206 16.9214 14.0938 17.076 13.9534 17.2026L9.4534 21.2526C9.32168 21.3715 9.16781 21.4633 9.00059 21.5227C8.83338 21.5821 8.65609 21.6079 8.47888 21.5987C8.30167 21.5895 8.12801 21.5455 7.96784 21.4691C7.80766 21.3927 7.66591 21.2855 7.5472 21.1536ZM17.5498 18.45C17.1918 18.45 16.8484 18.5923 16.5952 18.8454C16.342 19.0986 16.1998 19.442 16.1998 19.8C16.1998 20.1581 16.342 20.5014 16.5952 20.7546C16.8484 21.0078 17.1918 21.15 17.5498 21.15H22.0498C22.4078 21.15 22.7512 21.0078 23.0044 20.7546C23.2576 20.5014 23.3998 20.1581 23.3998 19.8C23.3998 19.442 23.2576 19.0986 23.0044 18.8454C22.7512 18.5923 22.4078 18.45 22.0498 18.45H17.5498Z" fill="white"/>
</svg>
